# xmcd
#
# Track frame offsets:
#	150
#	10372
#	21657
#	33029
#	43321
#	56567
#	67089
#	78767
#	90389
#	99939
#	115494
#	127500
#	139296
#	154443
#
# Disc length: 2260
#
# Revision: 1
# Processed by: cddbd v1.5.1PL0 Copyright (c) Steve Scherf et al.
# Submitted via: CDex 1.51
# Normalized: r0:TRMNUM
#
DISCID=b608d20e
DTITLE=Dolly Parton - Just Because I'm A Woman  
DYEAR=1975
DGENRE=Country
TTITLE0=You're Gonna Be Sorry
TTITLE1=I Wish I Felt This Way At Home
TTITLE2=False Eyelashes
TTITLE3=I'll Oil Wells Love You
TTITLE4=The Only Way Out (Is To Walk Over Me)
TTITLE5=Little Bit Slow To Catch On
TTITLE6=The Bridge
TTITLE7=Love And Learn
TTITLE8=I'm Running Out Of Love
TTITLE9=Just Because I'm A Woman
TTITLE10=Baby Sister
TTITLE11=Try Being Lonely
TTITLE12=Just Because I'm A Woman - (previously unreleased, live)
TTITLE13=Coat Of Many Colors - (previously unreleased, live)
EXTD=YEAR: 1975
EXTT0=
EXTT1=
EXTT2=
EXTT3=
EXTT4=
EXTT5=
EXTT6=
EXTT7=
EXTT8=
EXTT9=
EXTT10=
EXTT11=
EXTT12=
EXTT13=
PLAYORDER=
